<svg width="1200" height="630" viewBox="0 0 1200 630" fill="none" xmlns="http://www.w3.org/2000/svg">
  <rect width="1200" height="630" fill="#0F172A"/>
  
  <defs>
    <pattern id="grid" width="40" height="40" patternUnits="userSpaceOnUse">
      <path d="M 40 0 L 0 0 0 40" fill="none" stroke="#1E293B" stroke-width="1"/>
    </pattern>
    <linearGradient id="textGradient" x1="0" y1="0" x2="100%" y2="0">
      <stop stop-color="#60A5FA"/> <stop offset="1" stop-color="#C084FC"/> </linearGradient>
     <linearGradient id="bgGradient" x1="0" y1="0" x2="1200" y2="630">
      <stop stop-color="#3B82F6"/> <stop offset="1" stop-color="#9333EA"/> </linearGradient>
  </defs>
  <rect width="1200" height="630" fill="url(#grid)" />

  <rect x="200" y="115" width="800" height="400" rx="30" fill="#1E293B" fill-opacity="0.6" stroke="#334155" stroke-width="2"/>
  
  <circle cx="600" cy="240" r="60" fill="url(#bgGradient)"/>
  <path d="M600 200 L600 280 M600 280 L570 250 M600 280 L630 250" stroke="white" stroke-width="8" stroke-linecap="round" stroke-linejoin="round"/>
  <circle cx="600" cy="200" r="10" fill="white"/>
  <circle cx="570" cy="250" r="10" fill="white"/>
  <circle cx="630" cy="250" r="10" fill="white"/>

  <text x="600" y="360" font-family="sans-serif" font-weight="bold" font-size="72" text-anchor="middle" fill="url(#textGradient)">
    Git-Commit-Opt
  </text>
  
  <text x="600" y="420" font-family="sans-serif" font-weight="400" font-size="32" text-anchor="middle" fill="#94A3B8">
    Professional Conventional Commit Generator
  </text>

  <rect x="350" y="460" width="500" height="40" rx="8" fill="#000000" fill-opacity="0.4"/>
  <text x="370" y="487" font-family="monospace" font-size="18" fill="#34D399">git commit -m "feat: social sharing"</text>
</svg>